<svg width="72" height="72" viewBox="0 0 72 72" fill="none" xmlns="http://www.w3.org/2000/svg">
<circle cx="36" cy="36" r="27" fill="url(#paint0_linear_0_37)"/>
<g filter="url(#filter0_d_0_37)">
<circle cx="36" cy="36" r="21" fill="url(#paint1_linear_0_37)"/>
</g>
<path d="M44.5152 40.4261L40.7964 38.6448C40.6375 38.5691 40.461 38.5532 40.2933 38.5994C40.1256 38.6455 39.9759 38.7513 39.8667 38.9009L38.2198 41.1497C35.6351 39.7877 33.555 37.4629 32.3364 34.5742L34.3485 32.7335C34.4826 32.6117 34.5775 32.4444 34.6188 32.2569C34.6601 32.0694 34.6457 31.8719 34.5777 31.6945L32.9839 27.5381C32.9092 27.3468 32.7771 27.1906 32.6105 27.0964C32.4438 27.0022 32.2529 26.976 32.0708 27.0223L28.6176 27.9129C28.442 27.9583 28.2853 28.0688 28.1732 28.2264C28.061 28.384 28 28.5795 28 28.7809C28 38.2997 34.903 46 43.4065 46C43.5868 46.0001 43.7618 45.9319 43.9029 45.8066C44.044 45.6812 44.1429 45.5061 44.1835 45.3098L44.9804 41.4503C45.0215 41.2458 44.9976 41.0316 44.9127 40.8447C44.8277 40.6577 44.6872 40.5097 44.5152 40.4261Z" fill="white"/>
<defs>
<filter id="filter0_d_0_37" x="0" y="0" width="72" height="72" filterUnits="userSpaceOnUse" color-interpolation-filters="sRGB">
<feFlood flood-opacity="0" result="BackgroundImageFix"/>
<feColorMatrix in="SourceAlpha" type="matrix" values="0 0 0 0 0 0 0 0 0 0 0 0 0 0 0 0 0 0 127 0" result="hardAlpha"/>
<feOffset/>
<feGaussianBlur stdDeviation="7.5"/>
<feColorMatrix type="matrix" values="0 0 0 0 0 0 0 0 0 0 0 0 0 0 0 0 0 0 0.25 0"/>
<feBlend mode="normal" in2="BackgroundImageFix" result="effect1_dropShadow_0_37"/>
<feBlend mode="normal" in="SourceGraphic" in2="effect1_dropShadow_0_37" result="shape"/>
</filter>
<linearGradient id="paint0_linear_0_37" x1="54.5" y1="12.5" x2="17.5" y2="59" gradientUnits="userSpaceOnUse">
<stop stop-color="#E90391"/>
<stop offset="1" stop-color="#0064C0"/>
</linearGradient>
<linearGradient id="paint1_linear_0_37" x1="50.3889" y1="17.7222" x2="24.0682" y2="51.75" gradientUnits="userSpaceOnUse">
<stop stop-color="#E90391"/>
<stop offset="1" stop-color="#0064C0"/>
</linearGradient>
</defs>
</svg>
