<svg width="54" height="54" viewBox="0 0 54 54" fill="none" xmlns="http://www.w3.org/2000/svg">
<circle cx="27" cy="27" r="27" fill="url(#paint0_linear_0_531)"/>
<circle cx="27" cy="27" r="21" fill="url(#paint1_linear_0_531)"/>
<path d="M35.5152 31.4261L31.7964 29.6448C31.6375 29.5691 31.461 29.5532 31.2933 29.5994C31.1256 29.6455 30.9759 29.7513 30.8667 29.9009L29.2198 32.1497C26.6351 30.7877 24.555 28.4629 23.3364 25.5742L25.3485 23.7335C25.4826 23.6117 25.5775 23.4444 25.6188 23.2569C25.6601 23.0694 25.6457 22.8719 25.5777 22.6945L23.9839 18.5381C23.9092 18.3468 23.7771 18.1906 23.6105 18.0964C23.4438 18.0022 23.2529 17.976 23.0708 18.0223L19.6176 18.9129C19.442 18.9583 19.2853 19.0688 19.1732 19.2264C19.061 19.384 19 19.5795 19 19.7809C19 29.2997 25.903 37 34.4065 37C34.5868 37.0001 34.7618 36.9319 34.9029 36.8066C35.044 36.6812 35.1429 36.5061 35.1835 36.3098L35.9804 32.4503C36.0215 32.2458 35.9976 32.0316 35.9127 31.8447C35.8277 31.6577 35.6872 31.5097 35.5152 31.4261Z" fill="white"/>
<defs>
<linearGradient id="paint0_linear_0_531" x1="45.5" y1="3.5" x2="8.5" y2="50" gradientUnits="userSpaceOnUse">
<stop stop-color="#E90391"/>
<stop offset="1" stop-color="#0064C0"/>
</linearGradient>
<linearGradient id="paint1_linear_0_531" x1="41.3889" y1="8.72223" x2="15.0682" y2="42.75" gradientUnits="userSpaceOnUse">
<stop stop-color="#E90391"/>
<stop offset="1" stop-color="#0064C0"/>
</linearGradient>
</defs>
</svg>
