<svg width="15" height="17" viewBox="0 0 15 17" fill="none" xmlns="http://www.w3.org/2000/svg">
<path d="M7.5 9.5625C9.8291 9.5625 11.7188 7.4209 11.7188 4.78125C11.7188 2.1416 9.8291 0 7.5 0C5.1709 0 3.28125 2.1416 3.28125 4.78125C3.28125 7.4209 5.1709 9.5625 7.5 9.5625ZM11.25 10.625H9.63574C8.98535 10.9637 8.26172 11.1562 7.5 11.1562C6.73828 11.1562 6.01758 10.9637 5.36426 10.625H3.75C1.67871 10.625 0 12.5275 0 14.875V15.4062C0 16.2861 0.629883 17 1.40625 17H13.5938C14.3701 17 15 16.2861 15 15.4062V14.875C15 12.5275 13.3213 10.625 11.25 10.625Z" fill="white"/>
</svg>
