<svg width="15" height="17" viewBox="0 0 15 17" fill="none" xmlns="http://www.w3.org/2000/svg">
<path d="M14.4551 0.817139L11.4083 0.0202805C11.0772 -0.0660458 10.7374 0.129848 10.6026 0.481794L9.19641 4.20047C9.07336 4.52585 9.15539 4.90768 9.39855 5.13013L11.1739 6.77697C10.1192 9.3236 8.2765 11.4419 5.9826 12.6604L4.52951 10.6484C4.3303 10.3728 3.99632 10.2798 3.70921 10.4193L0.428031 12.013C0.114561 12.169 -0.0582874 12.5542 0.0178829 12.9294L0.720994 16.3824C0.794234 16.741 1.07548 17 1.40653 17C8.9093 17 15 10.1105 15 1.59408C15 1.22221 14.7744 0.900145 14.4551 0.817139Z" fill="white"/>
</svg>
