<svg width="16" height="13" viewBox="0 0 16 13" fill="none" xmlns="http://www.w3.org/2000/svg">
<path d="M15.6969 4.29271C15.8187 4.18776 16 4.28594 16 4.45182V11.375C16 12.2721 15.3281 13 14.5 13H1.5C0.671875 13 0 12.2721 0 11.375V4.45521C0 4.28594 0.178125 4.19115 0.303125 4.29609C1.00312 4.88516 1.93125 5.63333 5.11875 8.14193C5.77813 8.66328 6.89062 9.76016 8 9.75339C9.11563 9.76354 10.25 8.64297 10.8844 8.14193C14.0719 5.63333 14.9969 4.88177 15.6969 4.29271ZM8 8.66667C8.725 8.68021 9.76875 7.67813 10.2937 7.2651C14.4406 4.00495 14.7562 3.72057 15.7125 2.90807C15.8937 2.75573 16 2.51875 16 2.26823V1.625C16 0.727865 15.3281 0 14.5 0H1.5C0.671875 0 0 0.727865 0 1.625V2.26823C0 2.51875 0.10625 2.75234 0.2875 2.90807C1.24375 3.71719 1.55938 4.00495 5.70625 7.2651C6.23125 7.67813 7.275 8.68021 8 8.66667Z" fill="white"/>
</svg>
