<svg width="18" height="15" viewBox="0 0 18 15" fill="none" xmlns="http://www.w3.org/2000/svg">
<path d="M17.659 4.95312C17.7961 4.83203 18 4.94531 18 5.13672V13.125C18 14.1602 17.2441 15 16.3125 15H1.6875C0.755859 15 0 14.1602 0 13.125V5.14062C0 4.94531 0.200391 4.83594 0.341016 4.95703C1.12852 5.63672 2.17266 6.5 5.75859 9.39453C6.50039 9.99609 7.75195 11.2617 9 11.2539C10.2551 11.2656 11.5312 9.97266 12.2449 9.39453C15.8309 6.5 16.8715 5.63281 17.659 4.95312ZM9 10C9.81563 10.0156 10.9898 8.85938 11.5805 8.38281C16.2457 4.62109 16.6008 4.29297 17.6766 3.35547C17.8805 3.17969 18 2.90625 18 2.61719V1.875C18 0.839844 17.2441 0 16.3125 0H1.6875C0.755859 0 0 0.839844 0 1.875V2.61719C0 2.90625 0.119531 3.17578 0.323437 3.35547C1.39922 4.28906 1.7543 4.62109 6.41953 8.38281C7.01016 8.85938 8.18437 10.0156 9 10Z" fill="url(#paint0_linear_0_214)"/>
<defs>
<linearGradient id="paint0_linear_0_214" x1="20.5" y1="1.00831e-07" x2="-1.13249e-06" y2="18" gradientUnits="userSpaceOnUse">
<stop stop-color="#E90391"/>
<stop offset="1" stop-color="#0064C0"/>
</linearGradient>
</defs>
</svg>
