<svg width="25" height="25" viewBox="0 0 25 25" fill="none" xmlns="http://www.w3.org/2000/svg">
<circle cx="12.5" cy="12.5" r="12.5" fill="url(#paint0_linear_0_240)"/>
<circle cx="12.4999" cy="12.5001" r="9.72222" fill="url(#paint1_linear_0_240)"/>
<path d="M16.4422 14.5493L14.7205 13.7246C14.647 13.6896 14.5652 13.6822 14.4876 13.7036C14.41 13.7249 14.3407 13.7739 14.2901 13.8431L13.5276 14.8843C12.331 14.2537 11.368 13.1774 10.8039 11.8401L11.7354 10.9879C11.7975 10.9315 11.8414 10.854 11.8605 10.7672C11.8797 10.6804 11.873 10.589 11.8415 10.5069L11.1036 8.58263C11.069 8.49405 11.0079 8.42172 10.9307 8.37813C10.8536 8.33453 10.7652 8.3224 10.6809 8.34382L9.08219 8.75615C9.00089 8.77713 8.92836 8.82829 8.87644 8.90128C8.82451 8.97426 8.79625 9.06476 8.79626 9.15801C8.79626 13.5648 11.9921 17.1298 15.9289 17.1298C16.0124 17.1299 16.0934 17.0983 16.1587 17.0402C16.224 16.9822 16.2698 16.9011 16.2886 16.8102L16.6575 15.0235C16.6766 14.9288 16.6655 14.8296 16.6262 14.7431C16.5869 14.6565 16.5218 14.588 16.4422 14.5493Z" fill="white"/>
<defs>
<linearGradient id="paint0_linear_0_240" x1="21.0648" y1="1.62037" x2="3.93518" y2="23.1481" gradientUnits="userSpaceOnUse">
<stop stop-color="#E90391"/>
<stop offset="1" stop-color="#0064C0"/>
</linearGradient>
<linearGradient id="paint1_linear_0_240" x1="19.1615" y1="4.03812" x2="6.97594" y2="19.7917" gradientUnits="userSpaceOnUse">
<stop stop-color="#E90391"/>
<stop offset="1" stop-color="#0064C0"/>
</linearGradient>
</defs>
</svg>
